<svg width="36" height="32" fill="none" xmlns="http://www.w3.org/2000/svg"><path fill-rule="evenodd" clip-rule="evenodd" d="M26.217 29.86a12.417 12.417 0 0 0 2.726-1.142c1.96-1.116 3.508-2.73 4.641-4.844 1.143-2.114 1.714-4.678 1.714-7.692 0-3.014-.571-5.578-1.714-7.692-1.133-2.114-2.68-3.724-4.642-4.83-.823-.472-1.69-.843-2.6-1.115l-2.861 4.688a6.25 6.25 0 0 1 2.574.96c1.052.693 1.866 1.71 2.442 3.05.585 1.34.877 2.987.877 4.939s-.292 3.598-.877 4.939c-.576 1.34-1.39 2.357-2.442 3.05-.816.536-1.74.865-2.772.986l2.934 4.702Z" fill="url(#a)"/><path d="M13.162 11.752a1 1 0 0 0-.162.544v8.408a1 1 0 0 0 .162.544l6.042 9.297a1 1 0 0 0 .839.455h3.083a1 1 0 0 0 .849-1.53l-7.796-12.492a1 1 0 0 1-.005-1.05l7.609-12.466a1 1 0 0 0-.871-1.521l-2.88.05a1 1 0 0 0-.822.455l-6.049 9.306ZM11.767 11.752a1 1 0 0 1 .162.544v8.408a1 1 0 0 1-.162.544l-6.042 9.297a1 1 0 0 1-.839.455H1.803a1 1 0 0 1-.849-1.53L8.75 16.979a1 1 0 0 0 .005-1.05L1.146 3.462a1 1 0 0 1 .871-1.521l2.88.05a1 1 0 0 1 .822.455l6.048 9.306Z" fill="#1F0256"/><defs><linearGradient id="a" x1="35.032" y1="6.781" x2="18.114" y2="28.257" gradientUnits="userSpaceOnUse"><stop stop-color="#00F0FF"/><stop offset=".505" stop-color="#4600A5"/><stop offset="1" stop-color="#FF00B4"/></linearGradient></defs></svg>