<svg width="36" height="32" viewBox="0 0 36 32" fill="none" xmlns="http://www.w3.org/2000/svg">
<path fill-rule="evenodd" clip-rule="evenodd" d="M26.2172 29.8594C27.1729 29.5866 28.0813 29.2061 28.9425 28.718C30.9036 27.6025 32.451 25.9877 33.5845 23.8736C34.727 21.7595 35.2983 19.1955 35.2983 16.1818C35.2983 13.1681 34.727 10.6042 33.5845 8.49005C32.451 6.37594 30.9036 4.76562 28.9425 3.65908C28.1189 3.18846 27.252 2.8171 26.342 2.54503L23.4809 7.23259C24.4335 7.37064 25.2914 7.69083 26.0547 8.19318C27.1072 8.88588 27.9214 9.90246 28.4972 11.2429C29.0819 12.5833 29.3743 14.2296 29.3743 16.1818C29.3743 18.134 29.0819 19.7803 28.4972 21.1207C27.9214 22.4612 27.1072 23.4777 26.0547 24.1704C25.2388 24.7074 24.3149 25.0362 23.2828 25.157L26.2172 29.8594Z" fill="url(#paint0_linear_4_2)"/>
<path d="M13 12V21L19.5 31H24.929L15.8523 16.4545L24.7301 1.90909L19.5 2L13 12Z" fill="#E2D9F3"/>
<path d="M11.929 12V21L5.42899 31H0L9.0767 16.4545L0.198864 1.90909L5.42899 2L11.929 12Z" fill="#E2D9F3"/>
<defs>
<linearGradient id="paint0_linear_4_2" x1="35" y1="6.5" x2="18" y2="30" gradientUnits="userSpaceOnUse">
<stop stop-color="#00F0FF"/>
<stop offset="0.505208" stop-color="#8756CB"/>
<stop offset="1" stop-color="#EC72C8"/>
</linearGradient>
</defs>
</svg>
